<svg width="216" height="294" viewBox="0 0 216 294" fill="none" xmlns="http://www.w3.org/2000/svg">
<path d="M216 102.978C216.024 83.2574 210.095 63.9454 198.919 47.3434C187.743 30.7414 171.792 17.5492 152.965 9.33858C134.138 1.12795 113.229 -1.75496 92.7303 1.03332C72.2314 3.8216 53.0062 12.1635 37.3453 25.0652C21.6844 37.9669 10.248 54.8844 4.3986 73.8023C-1.45076 92.7201 -1.46647 112.841 4.35335 131.767C10.1732 150.693 21.5832 167.627 37.2239 180.55C52.8647 193.474 72.0768 201.843 92.5714 204.661V235.224H77.1428C73.0509 235.224 69.1266 236.772 66.2331 239.528C63.3397 242.284 61.7142 246.021 61.7142 249.918C61.7142 253.815 63.3397 257.553 66.2331 260.308C69.1266 263.064 73.0509 264.612 77.1428 264.612H92.5714V279.306C92.5714 283.203 94.1969 286.941 97.0903 289.696C99.9837 292.452 103.908 294 108 294C112.092 294 116.016 292.452 118.91 289.696C121.803 286.941 123.429 283.203 123.429 279.306V264.612H138.857C142.949 264.612 146.873 263.064 149.767 260.308C152.66 257.553 154.286 253.815 154.286 249.918C154.286 246.021 152.66 242.284 149.767 239.528C146.873 236.772 142.949 235.224 138.857 235.224H123.429V204.661C149.111 201.13 172.6 188.911 189.599 170.24C206.598 151.568 215.97 127.691 216 102.978ZM108 176.448C92.7425 176.448 77.8277 172.139 65.1417 164.066C52.4556 155.993 42.568 144.519 36.7292 131.094C30.8905 117.669 29.3628 102.897 32.3393 88.6451C35.3159 74.3934 42.6631 61.3023 53.4517 51.0273C64.2403 40.7524 77.9859 33.7551 92.9501 30.9202C107.914 28.0854 123.425 29.5403 137.521 35.1011C151.617 40.6618 163.665 50.0787 172.142 62.1607C180.618 74.2428 185.143 88.4474 185.143 102.978C185.143 112.627 183.147 122.18 179.271 131.094C175.394 140.008 169.712 148.107 162.548 154.929C155.385 161.752 146.881 167.163 137.521 170.856C128.162 174.548 118.13 176.448 108 176.448Z" fill="black"/>
</svg>
