<svg width="477" height="357" viewBox="0 0 477 357" fill="none" xmlns="http://www.w3.org/2000/svg">
<g clip-path="url(#clip0_55_738)">
<path opacity="0.18" d="M61.9959 81.8647C40.2153 91.7435 15.3104 101.09 4.8421 122.564C-4.05807 140.791 0.389022 162.94 9.44481 181.089C18.1484 198.505 30.7129 213.709 46.1827 225.544C59.0511 235.369 74.6489 243.77 80.5324 258.846C86.0629 273.012 81.2866 289.038 83.3096 304.114C87.5592 335.759 121.699 356.27 153.649 356.976C185.599 357.682 215.807 343.82 245.123 331.071C274.439 318.322 305.88 306.26 337.518 310.769C364.727 314.644 391.386 330.646 418.003 323.925C438.03 318.866 452.849 301.799 462.731 283.668C480.226 251.556 484.482 207.652 459.14 181.286C449.982 171.766 437.353 164.824 432.248 152.649C427.849 142.166 430.105 130.272 430.093 118.904C430.093 89.5608 413.759 61.551 390.41 43.7428C367.062 25.9347 337.416 17.6286 308.064 16.5343C288.534 15.7988 268.741 18.0592 249.588 14.0765C214.418 6.75715 185.395 -14.029 155.858 14.9137C127.517 42.6844 98.7577 65.1808 61.9959 81.8647Z" fill="#FFF3F7"/>
<path d="M314.971 62.1012L246.781 129.387L149.22 47.9109V34.2529C158.395 32.1898 175.466 42.547 185.784 41.644C228.28 37.9305 277.013 33.4396 314.953 48.4432L314.971 62.1012Z" fill="#FFF3F7"/>
<path d="M314.971 62.1012L246.781 129.387L149.22 47.9109V34.2529C158.395 32.1898 175.466 42.547 185.784 41.644C228.28 37.9305 277.013 33.4396 314.953 48.4432L314.971 62.1012Z" fill="url(#paint0_linear_55_738)"/>
<path d="M314.971 48.4372L252.173 110.407L246.787 115.729L149.226 34.2469C161.215 31.1141 173.453 29.0193 185.802 27.986C189.469 27.671 193.148 27.4338 196.839 27.2744C237.617 25.5222 279.269 33.5533 314.971 48.4372Z" fill="#EF3054"/>
<path d="M286.697 290.33C196.785 298.182 99.458 256.669 69.31 197.6C61.3196 181.95 58.8536 166.642 61.2059 152.44C62.6267 160.862 65.3613 169.01 69.31 176.586C99.458 235.656 196.797 277.168 286.691 269.317C352.781 263.54 396.462 232.702 403.003 193.306C399.993 245.505 364.153 283.567 286.697 290.33Z" fill="#FFF3F7"/>
<path d="M286.697 290.33C196.785 298.182 99.458 256.669 69.31 197.6C61.3196 181.95 58.8536 166.642 61.2059 152.44C62.6267 160.862 65.3613 169.01 69.31 176.586C99.458 235.656 196.797 277.168 286.691 269.317C352.781 263.54 396.462 232.702 403.003 193.306C399.993 245.505 364.153 283.567 286.697 290.33Z" fill="url(#paint1_linear_55_738)"/>
<path d="M403.829 184.474C403.763 187.432 403.487 190.381 403.004 193.3C400.25 209.888 390.907 224.994 376.07 237.3C355.719 254.229 324.949 265.968 286.697 269.311C218.314 275.291 145.647 252.699 101.505 215.557C87.6011 203.867 76.5283 190.759 69.31 176.586C65.3587 169.012 62.6259 160.863 61.2118 152.44C54.6998 111.687 85.8235 76.3513 140.954 61.6766L238.515 143.153L306.688 75.8669C346.915 92.6465 379.583 118.133 394.899 148.146C401.262 160.602 404.123 172.819 403.829 184.474Z" fill="#FFF3F7"/>
<path d="M403.829 184.474L238.497 143.153L306.688 75.8669C346.915 92.6465 379.583 118.127 394.899 148.146C401.262 160.602 404.123 172.819 403.829 184.474Z" fill="#FFF3F7"/>
<path d="M403.829 184.474L238.497 143.153L306.688 75.8669C346.915 92.6465 379.583 118.127 394.899 148.146C401.262 160.602 404.123 172.819 403.829 184.474Z" fill="url(#paint2_linear_55_738)"/>
<path d="M403.829 184.474C403.763 187.432 403.487 190.381 403.004 193.3C400.244 209.894 390.901 224.994 376.07 237.3L238.497 143.153L403.829 184.474Z" fill="#FFF3F7"/>
<path d="M403.829 184.474C403.763 187.432 403.487 190.381 403.004 193.3C400.244 209.894 390.901 224.994 376.07 237.3L238.497 143.153L403.829 184.474Z" fill="url(#paint3_linear_55_738)"/>
<path d="M238.497 143.153L101.499 215.563C87.6011 203.867 76.5283 190.759 69.31 176.586C65.3587 169.012 62.6259 160.863 61.2119 152.44L238.497 143.153Z" fill="url(#paint4_linear_55_738)"/>
<path opacity="0.18" d="M252.173 110.407L246.787 115.729L149.226 34.2469C161.215 31.114 173.453 29.0193 185.802 27.9859C189.469 27.671 193.148 27.4338 196.839 27.2743C196.839 27.2743 170.677 32.6562 185.467 47.2053C200.257 61.7544 252.173 110.407 252.173 110.407Z" fill="white"/>
<path opacity="0.18" d="M81.6637 93.3402C81.6637 93.3402 76.6121 128.807 97.824 135.08C119.036 141.353 238.479 143.153 238.479 143.153L61.1939 152.44C61.1939 152.44 51.4737 123.933 81.6637 93.3402Z" fill="white"/>
<path opacity="0.18" d="M101.499 215.563C101.499 215.563 327.427 270.578 383.342 179.355L403.829 184.48C403.829 184.48 404.608 244.781 323.806 262.906C243.004 281.031 154.385 263.893 101.499 215.563Z" fill="white"/>
<path d="M466.753 273.945C463.979 280.571 460.73 286.988 457.033 293.147C457.033 293.147 452.604 284.727 442.95 267.732C438.856 260.508 434.396 256.831 429.931 254.887C423.892 252.256 417.829 252.776 412.574 251.939C403.405 250.498 394.235 245.248 394.235 245.248C394.235 245.248 372.993 231.691 365.272 226.435C357.551 221.179 353.098 207.568 363.309 206.606C373.52 205.643 399.676 213.919 399.676 213.919C413.651 171.151 384.036 130.434 383.288 129.405L383.348 129.447L383.557 129.632L383.719 129.77L384.126 130.123C386.963 132.556 396.354 140.629 404.673 147.865L404.955 148.11C409.707 152.242 414.07 156.081 416.638 158.408C424.599 165.637 474.791 223.875 474.791 223.875C478.466 240.595 472.679 259.952 466.753 273.945Z" fill="url(#paint5_linear_55_738)"/>
<path d="M399.688 214.678C413.663 171.916 384.048 131.193 383.3 130.164L383.36 130.212L383.569 130.392L383.731 130.529L384.138 130.882L404.685 148.63L404.967 148.876C404.967 148.876 414.346 159.472 410.719 192.062C409.647 201.732 400.029 213.997 399.688 214.678Z" fill="url(#paint6_linear_55_738)"/>
<path d="M466.753 274.752C463.98 281.376 460.731 287.791 457.033 293.948C457.033 293.948 452.604 285.528 442.95 268.533C438.856 261.31 434.397 257.638 429.931 255.688C430.973 255.958 455.184 262.266 462.737 269.963C464.191 271.459 465.534 273.06 466.753 274.752Z" fill="url(#paint7_linear_55_738)"/>
<path d="M367.062 213.787C369.33 213.423 371.64 213.997 373.801 214.762C375.631 215.419 377.406 216.219 379.11 217.154C379.798 217.531 380.541 218.009 380.702 218.775C380.761 219.34 380.644 219.91 380.367 220.407C379.231 222.968 377.781 225.378 376.052 227.583C375.918 227.795 375.724 227.964 375.495 228.067C375.289 228.118 375.073 228.118 374.866 228.067C370.35 227.431 366.164 225.344 362.938 222.123C359.472 218.529 362.561 214.511 367.062 213.787Z" fill="url(#paint8_linear_55_738)"/>
</g>
<defs>
<linearGradient id="paint0_linear_55_738" x1="217.86" y1="191.088" x2="233.256" y2="36.3311" gradientUnits="userSpaceOnUse">
<stop/>
<stop offset="0.99" stop-opacity="0"/>
</linearGradient>
<linearGradient id="paint1_linear_55_738" x1="269.25" y1="36.274" x2="179.347" y2="378.215" gradientUnits="userSpaceOnUse">
<stop/>
<stop offset="0.99" stop-opacity="0"/>
</linearGradient>
<linearGradient id="paint2_linear_55_738" x1="109.801" y1="224.007" x2="451.13" y2="93.2893" gradientUnits="userSpaceOnUse">
<stop/>
<stop offset="0.99" stop-opacity="0"/>
</linearGradient>
<linearGradient id="paint3_linear_55_738" x1="345.7" y1="94.321" x2="275.553" y2="305.934" gradientUnits="userSpaceOnUse">
<stop/>
<stop offset="0.99" stop-opacity="0"/>
</linearGradient>
<linearGradient id="paint4_linear_55_738" x1="243.321" y1="-5.01114" x2="71.2669" y2="276.787" gradientUnits="userSpaceOnUse">
<stop/>
<stop offset="0.99" stop-opacity="0"/>
</linearGradient>
<linearGradient id="paint5_linear_55_738" x1="357.347" y1="211.264" x2="475.953" y2="211.264" gradientUnits="userSpaceOnUse">
<stop stop-color="#ECC4D7"/>
<stop offset="0.42" stop-color="#EFD4D1"/>
<stop offset="1" stop-color="#F2EAC9"/>
</linearGradient>
<linearGradient id="paint6_linear_55_738" x1="419.954" y1="161.039" x2="107.27" y2="286.615" gradientUnits="userSpaceOnUse">
<stop stop-color="#ECC4D7"/>
<stop offset="0.42" stop-color="#EFD4D1"/>
<stop offset="1" stop-color="#F2EAC9"/>
</linearGradient>
<linearGradient id="paint7_linear_55_738" x1="429.931" y1="274.818" x2="466.753" y2="274.818" gradientUnits="userSpaceOnUse">
<stop stop-color="#ECC4D7"/>
<stop offset="0.42" stop-color="#EFD4D1"/>
<stop offset="1" stop-color="#F2EAC9"/>
</linearGradient>
<linearGradient id="paint8_linear_55_738" x1="361.453" y1="220.885" x2="380.732" y2="220.885" gradientUnits="userSpaceOnUse">
<stop stop-color="#ECC4D7"/>
<stop offset="0.42" stop-color="#EFD4D1"/>
<stop offset="1" stop-color="#F2EAC9"/>
</linearGradient>
<clipPath id="clip0_55_738">
<rect width="477" height="357" fill="white"/>
</clipPath>
</defs>
</svg>
