<svg width="33" height="26" viewBox="0 0 33 26" fill="none" xmlns="http://www.w3.org/2000/svg">
<g clip-path="url(#clip0_7_50)">
<path d="M32.3857 3.16603C31.1876 3.69434 29.9167 4.04112 28.6154 4.19484C29.9708 3.38623 31.0116 2.10576 31.5017 0.580092C30.2131 1.34116 28.8033 1.87739 27.3332 2.16559C26.1357 0.895824 24.4298 0.102264 22.5416 0.102264C18.9162 0.102264 15.9768 3.0277 15.9768 6.63585C15.9768 7.14802 16.035 7.64662 16.1468 8.12494C10.6911 7.85238 5.85407 5.25126 2.61626 1.29826C2.05132 2.26325 1.7276 3.38573 1.7276 4.58297C1.7276 6.84982 2.88661 8.84959 4.64794 10.0213C3.60548 9.98883 2.58595 9.70859 1.67448 9.20401C1.6741 9.23138 1.6741 9.25874 1.6741 9.28624C1.6741 12.4519 3.93688 15.0927 6.93984 15.6929C5.97317 15.9546 4.9592 15.9929 3.97538 15.8049C4.81067 18.4007 7.23506 20.2896 10.1075 20.3425C7.86088 22.0948 5.03028 23.1394 1.95483 23.1394C1.42488 23.1394 0.90243 23.1084 0.388855 23.0481C3.29395 24.9019 6.74449 25.9836 10.4516 25.9836C22.5263 25.9836 29.1291 16.0276 29.1291 7.39359C29.1291 7.1102 29.1228 6.82843 29.1101 6.54827C30.3952 5.62358 31.5045 4.47824 32.3857 3.16603Z" fill="#201A23"/>
</g>
<defs>
<clipPath id="clip0_7_50">
<rect width="32" height="26" fill="white" transform="translate(0.387299)"/>
</clipPath>
</defs>
</svg>
