<svg width="241" height="240" viewBox="0 0 241 240" fill="none" xmlns="http://www.w3.org/2000/svg">
<path d="M240.216 16C240.214 14.1447 239.889 12.304 239.256 10.56C238.576 9.0858 237.657 7.73422 236.536 6.56C236.188 6.10553 235.752 5.72483 235.256 5.44C234.338 4.50084 233.252 3.74117 232.056 3.2H230.456C228.638 1.68502 226.507 0.592111 224.216 0H160.216C155.972 0 151.903 1.68571 148.902 4.68629C145.901 7.68688 144.216 11.7565 144.216 16C144.216 20.2435 145.901 24.3131 148.902 27.3137C151.903 30.3143 155.972 32 160.216 32H184.536L150.456 64.8C130.637 51.1491 106.414 45.4397 82.5849 48.8026C58.7558 52.1655 37.0589 64.3555 21.7919 82.9579C6.52486 101.56 -1.19864 125.218 0.151259 149.246C1.50115 173.273 11.826 195.917 29.0806 212.692C46.3352 229.467 69.261 239.15 93.3167 239.823C117.372 240.496 140.804 232.109 158.969 216.324C177.134 200.539 188.708 178.508 191.398 154.593C194.089 130.679 187.699 106.627 173.496 87.2L208.216 53.6V80C208.216 84.2435 209.901 88.3131 212.902 91.3137C215.903 94.3143 219.972 96 224.216 96C228.459 96 232.529 94.3143 235.529 91.3137C238.53 88.3131 240.216 84.2435 240.216 80V16ZM96.2157 208C83.5577 208 71.184 204.246 60.6592 197.214C50.1345 190.182 41.9314 180.186 37.0874 168.492C32.2434 156.797 30.976 143.929 33.4455 131.514C35.9149 119.099 42.0103 107.696 50.9609 98.7452C59.9115 89.7946 71.3152 83.6992 83.7299 81.2297C96.1447 78.7603 109.013 80.0277 120.707 84.8717C132.402 89.7157 142.397 97.9188 149.43 108.444C156.462 118.968 160.216 131.342 160.216 144C160.216 160.974 153.473 177.252 141.471 189.255C129.468 201.257 113.19 208 96.2157 208Z" fill="black"/>
</svg>
