<svg width="24" height="24" viewBox="0 0 24 24" fill="none" xmlns="http://www.w3.org/2000/svg">
<path d="M23.3873 16.8996C23.3873 21.1561 20.8498 23.6936 16.5933 23.6936H15.2017C14.5586 23.6936 14.0324 23.1674 14.0324 22.5243V15.777C14.0324 15.4613 14.2896 15.1924 14.6054 15.1924L16.6635 15.1573C16.8272 15.1456 16.9675 15.0287 17.0026 14.8649L17.4118 12.6315C17.4469 12.421 17.2832 12.2222 17.061 12.2222L14.5703 12.2573C14.2429 12.2573 13.9856 12 13.9739 11.6843L13.9271 8.81933C13.9271 8.63223 14.0792 8.46853 14.2779 8.46853L17.0844 8.42174C17.2832 8.42174 17.4352 8.26974 17.4352 8.07095L17.3885 5.26445C17.3885 5.06565 17.2364 4.91365 17.0376 4.91365L13.8804 4.96043C11.9392 4.99552 10.3957 6.58584 10.4307 8.52699L10.4892 11.7427C10.5009 12.0702 10.2436 12.3274 9.91621 12.3391L8.51298 12.3625C8.31418 12.3625 8.16218 12.5145 8.16218 12.7133L8.19726 14.9351C8.19726 15.1339 8.34927 15.2859 8.54806 15.2859L9.9513 15.2625C10.2787 15.2625 10.536 15.5198 10.5477 15.8355L10.6529 22.5009C10.6646 23.1557 10.1384 23.6936 9.48355 23.6936H6.79401C2.53752 23.6936 0 21.1561 0 16.8879V7.10036C0 2.84387 2.53752 0.306351 6.79401 0.306351H16.5933C20.8498 0.306351 23.3873 2.84387 23.3873 7.10036V16.8996Z" fill="#201A23"/>
</svg>
