<svg width="191" height="189" viewBox="0 0 191 189" fill="none" xmlns="http://www.w3.org/2000/svg">
<path d="M126.474 95.0215C121.98 100.828 116.849 105.754 110.549 109.38C102.725 113.883 94.2729 115.094 85.3466 114.19C76.3779 113.282 67.9938 110.465 59.7205 107.146C58.2528 106.557 57.904 105.911 58.6368 104.463C60.9906 99.813 63.8743 95.6073 68.095 92.3888C71.7447 89.6056 75.9051 88.4693 80.4393 88.2584C84.6283 88.0635 88.7381 88.7934 92.8846 89.0852C96.7155 89.3549 100.417 88.7789 104.032 87.5377C104.672 87.318 105.388 86.8474 106.002 87.4782C106.553 88.0449 106.321 88.7832 106.164 89.47C105.624 91.83 103.995 93.3162 101.974 94.4138C99.8815 95.5508 97.5928 96.1521 95.2494 96.5947C94.4676 96.7424 93.2021 96.5972 93.3444 97.9416C93.4711 99.1385 94.5133 99.3205 95.5206 99.3559C100.893 99.5444 105.927 98.1406 110.768 96.012C117.535 93.0368 123.029 88.4503 127.558 82.6928C128.182 81.8997 128.806 81.1067 129.6 80.0981C131.117 81.8669 131.209 83.7468 130.907 85.6847C130.48 88.4321 129.22 90.8571 127.752 93.1843C127.379 93.7758 126.957 94.3375 126.474 95.0215Z" fill="#EF3054"/>
<path d="M96.6749 82.59C92.9751 78.8981 89.3566 75.3075 85.7624 71.6932C83.1111 69.027 82.9495 65.1344 85.3488 62.6445C87.9449 59.9503 91.6854 59.8455 94.5998 62.4965C95.5789 63.3871 96.3325 64.5205 97.1422 65.4869C99.2246 64.3914 100.159 62.7771 101.641 61.7967C104.216 60.0936 106.816 60.1272 109.302 61.9664C111.497 63.591 112.317 66.4411 111.374 69.1284C111.05 70.0502 110.479 70.805 109.797 71.4848C106.142 75.1277 102.475 78.7595 98.8296 82.4119C98.1825 83.0602 97.5879 83.5817 96.6749 82.59ZM94.378 73.379C95.5108 73.3612 96.4 73.5809 96.3908 75.008C96.3849 75.9223 97.0764 76.089 97.8591 76.1077C98.7075 76.1281 99.2491 75.835 99.1987 74.9275C99.1327 73.7405 99.7752 73.4072 100.844 73.3936C101.794 73.3815 101.921 72.6889 101.911 71.9233C101.902 71.194 101.658 70.6494 100.837 70.6537C99.7658 70.6593 99.122 70.3165 99.2034 69.122C99.2654 68.212 98.7115 67.9302 97.874 67.9194C96.9999 67.9082 96.357 68.0841 96.3352 69.1297C96.3201 69.855 96.1823 70.4427 95.2369 70.6243C93.1826 71.0187 93.0816 71.3333 94.378 73.379Z" fill="#EF3054"/>
<path d="M109.057 92.2854C113.919 88.9821 117.761 84.8543 121.049 80.1807C122.905 81.9712 123.209 86.4791 121.508 87.9861C116.504 92.4214 110.348 94.4397 104.032 96.0558C103.938 95.8954 103.843 95.735 103.748 95.5746C105.48 94.5053 107.213 93.4361 109.057 92.2854Z" fill="#EF3054"/>
</svg>
