<svg width="604" height="475" viewBox="0 0 604 475" fill="none" xmlns="http://www.w3.org/2000/svg">
<path d="M477.731 118.578C476.432 119.933 475.476 121.579 474.94 123.378C474.665 124.256 474.501 125.166 474.453 126.085C474.406 126.999 474.449 127.916 474.584 128.821L474.591 128.882L474.585 128.93C474.482 129.942 474.203 130.929 473.763 131.846C473.53 132.325 473.222 132.764 472.85 133.146C472.65 133.34 472.429 133.512 472.193 133.66L471.921 133.842C471.842 133.889 471.769 133.948 471.707 134.017C471.445 134.285 471.26 134.62 471.174 134.985C471.088 135.35 471.103 135.732 471.218 136.09C471.248 136.235 471.31 136.371 471.399 136.489C471.488 136.607 471.602 136.704 471.734 136.772C471.924 136.789 472.116 136.795 472.308 136.789L473.022 136.793L473.56 136.796L473.551 137.338C473.529 138.6 473.58 139.863 473.705 141.119C473.818 142.379 474.026 143.628 474.327 144.856C474.625 146.078 475.103 147.248 475.746 148.329C476.401 149.423 477.411 150.259 478.607 150.697C477.312 150.41 476.165 149.659 475.384 148.585C474.6 147.521 474.005 146.328 473.628 145.061C473.226 143.812 472.936 142.531 472.761 141.231C472.581 139.931 472.492 138.621 472.492 137.309L473.022 137.853L472.308 137.857C472.024 137.873 471.739 137.858 471.458 137.812C471.147 137.704 470.868 137.52 470.645 137.277C470.422 137.035 470.262 136.741 470.18 136.421C469.998 135.869 469.976 135.276 470.116 134.711C470.256 134.147 470.553 133.633 470.972 133.23C471.074 133.126 471.189 133.035 471.313 132.959L471.637 132.747C471.805 132.643 471.963 132.523 472.107 132.388C472.4 132.086 472.649 131.743 472.845 131.37C473.255 130.577 473.527 129.72 473.649 128.836L473.651 128.944C473.552 127.969 473.562 126.986 473.681 126.013C473.793 125.044 474.026 124.093 474.376 123.182C474.718 122.276 475.184 121.422 475.759 120.644C476.308 119.859 476.973 119.163 477.731 118.578Z" fill="#020202"/>
<path d="M475.212 129.102C475.681 128.728 476.213 128.441 476.783 128.255C477.355 128.059 477.951 127.945 478.554 127.916C479.166 127.891 479.777 127.975 480.359 128.163C480.938 128.348 481.464 128.67 481.893 129.102C481.348 128.933 480.791 128.805 480.227 128.719C479.682 128.648 479.132 128.624 478.582 128.648C477.449 128.718 476.323 128.869 475.212 129.102Z" fill="#020202"/>
<path d="M477.622 132.284C477.906 132.274 478.176 132.154 478.374 131.949C478.572 131.744 478.683 131.47 478.683 131.185C478.683 130.899 478.572 130.625 478.374 130.42C478.176 130.215 477.906 130.095 477.622 130.085C477.337 130.095 477.067 130.215 476.869 130.42C476.671 130.625 476.561 130.899 476.561 131.185C476.561 131.47 476.671 131.744 476.869 131.949C477.067 132.154 477.337 132.274 477.622 132.284Z" fill="#020202"/>
<path d="M474.59 141.27C474.693 141.045 474.863 140.856 475.076 140.73C475.288 140.604 475.535 140.546 475.781 140.564C476.024 140.565 476.261 140.631 476.469 140.755C476.677 140.879 476.848 141.057 476.965 141.27C476.747 141.3 476.527 141.312 476.307 141.306C476.113 141.305 475.937 141.299 475.763 141.296C475.41 141.286 475.089 141.275 474.59 141.27Z" fill="#020202"/>
<path d="M477.622 116.496C477.622 116.496 486.164 131.733 490.436 130.637C490.436 130.637 492.955 127.68 493.94 130.693C494.926 133.706 494.159 140.721 490.107 139.625C490.107 139.625 488.038 145.22 482.769 147.737C477.5 150.254 474.043 154.534 475.777 164.838C475.777 164.838 495.048 155.411 506.986 158.481L506.426 118.578C506.426 118.578 497.226 108.493 477.622 116.496Z" fill="#020202"/>
<path d="M507.059 158.481C507.071 171.124 507.149 183.768 507.105 196.41L506.999 234.338L506.998 234.804L506.543 234.896C503.184 235.516 499.75 235.616 496.36 235.193C493.002 234.816 489.676 234.195 486.408 233.337C483.142 232.5 479.926 231.494 476.755 230.368C473.582 229.237 470.458 228.013 467.381 226.598L467.032 226.437L467.009 226.079C466.977 224.963 467.074 223.848 467.299 222.754C467.483 221.698 467.7 220.657 467.934 219.621C468.402 217.551 468.926 215.501 469.473 213.457C470.57 209.372 471.742 205.311 472.989 201.275L473.919 201.945C467.912 206.049 461.439 209.425 454.636 212.001C447.886 214.666 440.866 216.591 433.701 217.743C430.115 218.307 426.488 218.566 422.858 218.517C421.036 218.514 419.218 218.352 417.424 218.033C415.637 217.682 413.883 217.183 412.179 216.54C405.358 213.963 399.322 209.795 393.638 205.348C390.799 203.104 388.065 200.73 385.411 198.273C384.083 197.044 382.788 195.787 381.482 194.54L380.504 193.608C380.208 193.307 379.855 193.069 379.464 192.91C378.644 192.562 377.806 192.256 376.954 191.993C373.526 190.9 370.034 189.982 366.57 188.934C365.703 188.665 364.838 188.402 363.974 188.039C363.494 187.852 363.078 187.529 362.776 187.111C362.495 186.713 362.273 186.276 362.118 185.815C361.605 184.043 361.333 182.211 361.309 180.367C361.292 179.904 361.256 179.486 361.258 178.991C361.258 178.498 361.338 178.008 361.496 177.541C361.654 177.072 361.88 176.669 362.009 176.287C362.141 175.905 362.197 175.5 362.172 175.097C362.141 174.664 362.078 174.235 361.985 173.812C361.895 173.33 361.876 172.837 361.928 172.349C362.054 171.395 362.379 170.477 362.88 169.655C363.345 168.841 363.924 168.109 364.428 167.392C364.922 166.698 365.274 165.913 365.464 165.082C365.645 164.226 365.745 163.355 365.761 162.48C365.778 162.037 365.78 161.59 365.78 161.143C365.763 160.857 365.804 160.57 365.901 160.299C365.997 160.029 366.147 159.781 366.341 159.569C366.762 159.189 367.304 158.972 367.871 158.957C368.363 158.93 368.857 158.966 369.339 159.064C370.264 159.252 371.162 159.549 372.016 159.95C372.451 160.144 372.869 160.375 373.265 160.639C373.604 160.865 373.971 161.045 374.358 161.173C374.701 161.3 375.071 161.338 375.433 161.284C375.581 161.253 375.721 161.188 375.84 161.093C375.96 160.999 376.056 160.878 376.12 160.74C376.408 159.987 376.493 159.171 376.367 158.374C376.287 157.534 376.078 156.615 376.012 155.684C375.915 154.737 375.94 153.781 376.085 152.84C376.167 152.339 376.323 151.854 376.548 151.399C376.67 151.154 376.824 150.926 377.005 150.721C377.218 150.469 377.491 150.275 377.799 150.158L377.909 150.115L378.058 150.143C378.754 150.31 379.409 150.616 379.984 151.044C380.558 151.471 381.04 152.011 381.4 152.63C382.107 153.759 382.65 154.983 383.011 156.265C383.384 157.512 383.671 158.783 383.869 160.069C384.078 161.352 384.218 162.644 384.289 163.941L384.087 163.499C384.862 164.278 385.49 165.189 385.943 166.19C386.391 167.137 386.773 168.114 387.085 169.114C387.699 171.091 388.166 173.11 388.482 175.156L388.273 174.757C390.436 176.724 392.628 178.65 394.914 180.467C397.202 182.279 399.56 184 401.992 185.603C404.419 187.21 406.933 188.68 409.524 190.005C410.82 190.658 412.132 191.277 413.469 191.816C414.774 192.37 416.127 192.803 417.512 193.109L417.575 193.124C418.058 193.196 418.545 193.232 419.033 193.231C419.56 193.231 420.094 193.216 420.633 193.178C421.708 193.108 422.792 192.995 423.874 192.851C426.037 192.568 428.209 192.201 430.348 191.78L429.951 193.088L414.766 177.789L415.171 178.001C413.849 177.707 412.59 177.182 411.45 176.45L411.842 176.559H411.624L411.445 176.451C409.454 175.16 407.556 173.732 405.763 172.177C403.929 170.726 402.091 169.244 400.341 167.644C399.446 166.841 398.602 165.983 397.813 165.076C397.383 164.587 397.015 164.046 396.72 163.465C396.505 163.058 396.431 162.592 396.508 162.139C396.616 161.674 396.89 161.264 397.277 160.985C397.93 160.594 398.696 160.434 399.45 160.532C400.087 160.587 400.717 160.711 401.327 160.901C401.936 161.081 402.525 161.319 403.088 161.613C403.237 161.693 403.382 161.78 403.522 161.874L403.883 162.114C404.12 162.269 404.352 162.417 404.586 162.546C405.001 162.8 405.461 162.971 405.942 163.049C406.123 163.079 406.309 163.063 406.482 163.002C406.656 162.941 406.811 162.838 406.934 162.701C407.088 162.538 407.219 162.355 407.323 162.157C407.395 162.029 407.42 161.88 407.394 161.735C407.303 161.263 407.117 160.813 406.848 160.414C405.532 158.555 404 156.861 402.283 155.365L399.691 153.004C399.472 152.801 399.256 152.6 399.031 152.37C398.762 152.105 398.546 151.79 398.395 151.443C398.218 151.02 398.206 150.547 398.361 150.116C398.512 149.736 398.759 149.403 399.079 149.15C399.608 148.737 400.211 148.429 400.856 148.244C401.008 148.196 401.161 148.154 401.314 148.116C401.538 148.058 401.772 148.046 402.001 148.081C402.393 148.159 402.76 148.332 403.068 148.585C403.952 149.412 404.773 150.303 405.524 151.252C406.927 153.013 408.772 154.367 410.871 155.176C413.174 155.997 415.221 157.409 416.808 159.271C418.36 161.058 419.768 162.964 421.019 164.973C421.287 165.434 421.627 165.848 422.027 166.2C422.458 166.531 422.954 166.849 423.438 167.162C424.415 167.787 425.413 168.393 426.414 168.992C434.447 173.759 442.621 178.319 450.789 182.872L450.422 182.896L475.735 164.776L475.821 164.895L450.826 183.451L450.653 183.58L450.459 183.475C442.241 178.997 434.03 174.52 425.926 169.816C424.915 169.224 423.907 168.626 422.907 168C422.406 167.682 421.913 167.375 421.411 166.999C421.269 166.895 421.135 166.78 421.009 166.656C420.899 166.532 420.798 166.409 420.704 166.287C420.517 166.042 420.343 165.798 420.174 165.554C418.933 163.6 417.539 161.748 416.006 160.014C414.53 158.303 412.628 157.013 410.494 156.275C408.194 155.42 406.162 153.968 404.606 152.068C403.896 151.191 403.126 150.363 402.304 149.59C402.16 149.469 401.991 149.383 401.809 149.338C401.748 149.329 401.686 149.334 401.628 149.352C401.497 149.386 401.369 149.423 401.243 149.464C400.761 149.605 400.31 149.835 399.913 150.141C399.559 150.467 399.497 150.656 399.61 150.947C399.7 151.134 399.824 151.304 399.976 151.446C400.162 151.633 400.375 151.829 400.588 152.021L403.206 154.361C405.035 155.924 406.667 157.704 408.066 159.662C408.454 160.236 408.715 160.886 408.832 161.569C408.892 162.008 408.813 162.454 408.606 162.846C408.44 163.167 408.229 163.464 407.98 163.726C407.701 164.017 407.359 164.242 406.981 164.383C406.598 164.511 406.192 164.554 405.791 164.51C405.111 164.415 404.458 164.184 403.87 163.831C403.591 163.677 403.33 163.511 403.077 163.347L402.707 163.102C402.605 163.033 402.499 162.969 402.39 162.911C401.914 162.666 401.415 162.466 400.902 162.315C400.395 162.158 399.873 162.055 399.344 162.008C398.931 161.947 398.509 162.012 398.134 162.195C398.043 162.262 397.979 162.36 397.954 162.471C397.967 162.6 398.005 162.725 398.067 162.839C398.309 163.299 398.606 163.728 398.951 164.116C399.699 164.973 400.5 165.783 401.348 166.541C403.054 168.096 404.863 169.55 406.699 170.998C408.444 172.508 410.29 173.895 412.225 175.15L411.835 175.042H412.052L412.234 175.151C413.217 175.783 414.302 176.24 415.441 176.502L415.678 176.546L415.846 176.714L431.051 191.993L432.08 193.027L430.654 193.302C428.462 193.724 426.28 194.084 424.067 194.364C422.962 194.506 421.849 194.618 420.723 194.686C420.162 194.724 419.592 194.737 419.017 194.735C418.401 194.736 417.787 194.68 417.182 194.567L417.245 194.582C415.761 194.253 414.311 193.785 412.914 193.185C411.529 192.62 410.186 191.979 408.863 191.305C406.23 189.944 403.674 188.437 401.21 186.789C398.745 185.15 396.362 183.395 394.053 181.55C391.748 179.701 389.533 177.74 387.359 175.745L387.187 175.587L387.15 175.345C386.853 173.371 386.411 171.421 385.827 169.511C385.541 168.568 385.19 167.646 384.778 166.751C384.401 165.891 383.876 165.105 383.227 164.427L383.037 164.247L383.025 163.986C382.967 162.738 382.844 161.494 382.655 160.259C382.476 159.026 382.213 157.806 381.868 156.608C381.549 155.431 381.065 154.306 380.43 153.265C380.159 152.774 379.791 152.343 379.35 151.996C378.909 151.65 378.403 151.397 377.861 151.251L378.12 151.236C378.015 151.301 377.919 151.38 377.835 151.47C377.716 151.603 377.615 151.751 377.535 151.911C377.357 152.266 377.233 152.646 377.166 153.037C377.03 153.883 377.002 154.743 377.082 155.596C377.152 157.294 377.921 159.182 377.022 161.226C376.883 161.494 376.687 161.727 376.447 161.908C376.207 162.09 375.929 162.215 375.635 162.276C375.1 162.362 374.553 162.309 374.045 162.123C373.575 161.962 373.128 161.739 372.717 161.46C372.365 161.22 371.992 161.01 371.604 160.833C370.825 160.458 370.005 160.177 369.16 159.996C368.803 159.878 368.425 159.837 368.051 159.877C367.677 159.917 367.315 160.036 366.991 160.226C366.882 160.351 366.799 160.497 366.748 160.654C366.696 160.812 366.677 160.979 366.691 161.144C366.687 161.6 366.681 162.057 366.659 162.516C366.632 163.449 366.517 164.376 366.314 165.287C366.09 166.22 365.685 167.101 365.123 167.879C364.582 168.633 364.03 169.318 363.591 170.071C363.14 170.79 362.844 171.597 362.723 172.438C362.676 172.849 362.69 173.265 362.763 173.672C362.86 174.132 362.924 174.598 362.954 175.067C362.979 175.568 362.906 176.069 362.739 176.542C362.572 177.014 362.349 177.403 362.219 177.791C361.998 178.619 361.943 179.482 362.055 180.332C362.066 182.106 362.312 183.87 362.789 185.578C362.88 185.973 363.059 186.342 363.312 186.658C363.566 186.974 363.887 187.228 364.253 187.402C365.051 187.745 365.914 188.017 366.77 188.287C370.209 189.352 373.698 190.293 377.142 191.416C378.014 191.691 378.871 192.011 379.71 192.374C380.155 192.564 380.559 192.839 380.899 193.183L381.876 194.126C383.174 195.38 384.462 196.648 385.777 197.88C388.406 200.347 391.115 202.73 393.928 204.983C396.732 207.247 399.671 209.337 402.73 211.241C405.772 213.16 408.998 214.77 412.36 216.048C414.039 216.671 415.767 217.154 417.525 217.492C419.29 217.796 421.077 217.946 422.867 217.94C426.461 217.958 430.05 217.661 433.592 217.054C440.683 215.824 447.62 213.83 454.283 211.108C460.97 208.483 467.324 205.077 473.214 200.962L474.66 199.925L474.144 201.632C472.926 205.659 471.763 209.713 470.686 213.78C470.151 215.815 469.638 217.855 469.183 219.901C468.955 220.923 468.746 221.949 468.573 222.972C468.376 223.947 468.286 224.94 468.305 225.935L467.934 225.416C470.951 226.778 474.06 228.02 477.189 229.153C480.323 230.282 483.5 231.292 486.718 232.132C489.925 232.99 493.19 233.616 496.487 234.002C499.752 234.426 503.063 234.348 506.305 233.77L505.849 234.329L506.305 196.404C506.448 183.762 506.714 171.121 506.913 158.48L507.059 158.481Z" fill="#020202"/>
<path d="M486.712 195.75C484.559 196.829 482.355 197.742 480.156 198.661L476.851 200.018C475.753 200.481 474.647 200.917 473.57 201.451C474.508 200.692 475.527 200.038 476.609 199.5C477.674 198.941 478.769 198.445 479.876 197.984C482.091 197.056 484.377 196.309 486.712 195.75Z" fill="#020202"/>
<path d="M430.215 191.869C437.088 189.168 443.934 186.341 450.625 183.172C444.152 186.778 437.501 190.054 430.787 193.219L430.215 191.869Z" fill="#020202"/>
<path d="M492.083 158.953C493.448 159.304 494.698 160.006 495.709 160.988C496.223 161.472 496.689 162.003 497.101 162.575L497.716 163.44C497.895 163.742 498.051 164.058 498.219 164.368C499.465 166.88 500.192 169.618 500.355 172.418C500.406 175.169 500.238 177.92 499.854 180.644C499.682 181.999 499.577 183.362 499.338 184.706C499.107 186.051 499.014 187.421 498.748 188.766C498.335 191.497 497.614 194.172 496.598 196.741C496.078 198.043 495.45 199.299 494.722 200.497C493.968 201.719 493.041 202.824 491.971 203.78C490.856 204.764 489.512 205.453 488.062 205.784C487.327 205.941 486.573 205.983 485.826 205.908C485.085 205.817 484.363 205.614 483.683 205.305C482.352 204.682 481.249 203.656 480.532 202.372C480.171 201.756 479.944 201.071 479.864 200.361C479.785 199.652 479.855 198.933 480.07 198.252L480.212 198.289C480.12 198.944 480.158 199.61 480.325 200.249C480.503 200.87 480.786 201.455 481.161 201.981C481.901 203.016 482.935 203.803 484.129 204.241C485.287 204.668 486.549 204.724 487.739 204.4C488.937 204.064 490.037 203.446 490.948 202.598C492.833 200.789 494.325 198.61 495.331 196.197C496.404 193.735 497.284 191.193 497.965 188.594C498.671 185.976 499.145 183.301 499.381 180.599C499.564 177.908 499.484 175.205 499.141 172.529C498.854 169.898 498.201 167.32 497.2 164.87L496.789 163.975L496.289 163.131C496.134 162.842 495.951 162.569 495.745 162.314C495.546 162.055 495.361 161.78 495.149 161.53C494.306 160.5 493.247 159.669 492.047 159.095L492.083 158.953Z" fill="#020202"/>
<path d="M376.751 157.271C376.411 155.69 376.403 154.055 376.729 152.471C374.131 154.493 371.914 156.962 370.183 159.763C371.147 160.052 372.068 160.468 372.921 161.002C373.59 161.495 374.391 161.779 375.221 161.816C375.738 161.05 376.303 160.318 376.913 159.624C376.95 158.836 376.896 158.047 376.751 157.271ZM399.372 151.767C399.134 151.564 398.977 151.283 398.927 150.974C398.878 150.665 398.939 150.349 399.101 150.081C395.45 148.325 391.38 147.631 387.355 148.08C384.353 148.437 381.463 149.437 378.882 151.012C380.354 151.73 381.379 153.431 382.09 155.366C383.907 154.345 385.908 153.695 387.977 153.453C388.582 153.38 389.191 153.343 389.801 153.343C390.551 153.344 391.3 153.4 392.041 153.511L390.46 177.64C391.368 178.439 392.263 179.201 393.147 179.927L397.101 155.073C400.997 157.058 404.299 160.039 406.672 163.714C406.965 163.602 407.232 163.433 407.459 163.217C407.685 163 407.866 162.741 407.991 162.453C409.309 159.903 400.602 153.16 399.372 151.767ZM394.831 212.022C389.317 212.675 383.737 210.344 379.117 205.463C378.999 205.338 378.882 205.206 378.772 205.081L384.155 196.719C382.763 195.399 381.687 194.329 380.999 193.677L375.477 200.728C373.415 197.383 371.912 193.724 371.025 189.895C368.755 189.235 366.58 188.612 365.159 188.121C366.352 195.981 369.846 203.312 375.199 209.186C380.354 214.624 386.593 217.534 392.994 217.534C397.598 217.543 402.08 216.054 405.765 213.29C404.014 212.33 402.286 211.275 400.617 210.161C398.827 211.151 396.862 211.783 394.831 212.022ZM418.016 179.978L415.306 177.252C414.075 176.976 412.903 176.484 411.843 175.8C412.181 177.268 412.437 178.753 412.611 180.249C413.088 184.194 412.957 188.189 412.223 192.094C413.876 192.857 415.603 193.444 417.378 193.845C418.321 189.286 418.536 184.605 418.016 179.978Z" fill="#020202"/>
<path d="M456.429 234.394L456.644 238.515C453.436 238.68 450.22 238.788 447.013 238.788C443.557 238.788 440.11 238.606 436.662 238.374C433.215 238.151 429.759 238.018 426.312 238.051C423.121 238.084 419.93 238.151 416.738 238.3C416.581 235.594 416.3 232.813 416.052 229.71C423.41 230.199 430.33 230.554 437.134 230.778L442.218 230.902L447.253 230.91C450.262 230.877 453.279 230.822 456.305 230.745C456.338 231.961 456.38 233.177 456.429 234.394Z" fill="#020202"/>
<path d="M506.429 198.598H323.493C314.953 324.447 334.67 334.525 338.614 335.841C342.549 337.157 459.331 347.028 486.712 332.556C514.093 318.084 506.429 198.598 506.429 198.598ZM458.454 229.628C458.422 231.217 458.364 232.805 458.289 234.394L458.041 239.16L458 239.872L457.363 239.839C453.908 239.648 450.46 239.533 447.013 239.533C443.557 239.533 440.11 239.715 436.662 239.946C433.215 240.17 429.759 240.302 426.312 240.269C422.864 240.228 419.409 240.17 415.961 239.996L415.093 239.946L415.126 239.16C415.267 235.776 415.598 232.474 415.87 229.537C422.311 229.057 429.197 228.701 436.183 228.478L441.457 228.354L446.765 228.337C450.311 228.378 453.844 228.442 457.363 228.527L458.479 228.552L458.454 229.628Z" fill="#020202"/>
<path d="M323.424 198.589C324.217 193.709 325.298 188.88 326.659 184.128C327.987 179.365 329.56 174.671 331.307 170.043C334.813 160.775 339.152 151.846 344.27 143.364C349.377 134.859 355.393 126.937 362.213 119.737L363.49 118.388L364.818 117.089C365.707 116.227 366.58 115.349 367.481 114.5C369.337 112.861 371.121 111.142 373.066 109.608C376.874 106.45 380.857 103.509 384.996 100.799L385.057 100.758L385.131 100.753L414.51 98.6222C424.305 97.9383 434.097 97.2051 443.9 96.6201C453.703 96.036 463.511 95.4878 473.336 95.2057C478.248 95.0751 483.164 94.9873 488.088 95.0382C490.55 95.0722 493.013 95.1198 495.484 95.2803C498.013 95.3471 500.526 95.7106 502.97 96.3633L503.205 96.4352L503.341 96.6509C503.436 96.806 503.518 96.969 503.585 97.1382C503.647 97.273 503.701 97.4116 503.746 97.5531L504.011 98.3561C504.145 98.8851 504.3 99.4149 504.417 99.9436C504.64 101 504.864 102.057 505.019 103.115L505.278 104.701L505.484 106.29C505.618 107.349 505.769 108.407 505.862 109.468C506.084 111.587 506.291 113.708 506.433 115.83L506.671 119.013L506.848 122.197C507.336 130.687 507.488 139.185 507.529 147.677C507.555 151.924 507.569 156.17 507.514 160.415C507.471 164.661 507.418 168.906 507.306 173.149C507.168 181.638 506.799 190.12 506.499 198.602L506.352 198.599C506.412 190.111 506.477 181.625 506.476 173.14C506.501 168.898 506.467 164.656 506.423 160.414C506.419 156.173 506.355 151.932 506.275 147.693C506.134 139.214 505.829 130.743 505.362 122.283L505.177 119.112L504.932 115.948C504.785 113.836 504.574 111.734 504.349 109.634C504.254 108.58 504.101 107.538 503.966 106.493L503.759 104.925L503.501 103.372C503.345 102.33 503.125 101.312 502.908 100.293C502.794 99.7864 502.649 99.2973 502.522 98.7986L502.287 98.091C502.253 97.9796 502.21 97.8707 502.16 97.7652L502.063 97.535L502.433 97.8223C500.13 97.2104 497.766 96.8607 495.384 96.78C492.958 96.6049 490.511 96.5399 488.066 96.489C483.173 96.4039 478.27 96.4567 473.368 96.5524C463.563 96.749 453.754 97.0997 443.95 97.5481C434.146 98.0127 424.341 98.4958 414.545 99.1362C409.647 99.4609 404.748 99.7705 399.854 100.144L385.177 101.326L385.312 101.279C381.242 104.041 377.337 107.041 373.62 110.262C371.721 111.824 369.981 113.566 368.172 115.227C367.295 116.086 366.445 116.974 365.581 117.846L364.29 119.16L363.05 120.522C359.716 124.129 356.568 127.904 353.62 131.833L351.445 134.805C350.729 135.803 350.061 136.834 349.354 137.838C348.643 138.84 347.973 139.869 347.313 140.905C346.658 141.944 345.958 142.955 345.34 144.017C340.224 152.422 335.819 161.24 332.171 170.38C330.335 174.946 328.718 179.601 327.256 184.304C325.775 189.004 324.544 193.78 323.569 198.612L323.424 198.589Z" fill="#020202"/>
<path d="M505.893 80.76L472.231 82.3212L455.399 83.1005L438.565 83.8247L404.896 85.2729L388.06 85.9785C386.7 85.9947 385.343 86.0819 383.993 86.2397C382.7 86.5197 381.456 86.9889 380.301 87.6322C377.906 88.9749 375.665 90.5753 373.617 92.4049C369.47 96.1329 365.596 100.154 362.024 104.437C358.404 108.701 354.947 113.112 351.592 117.601C344.878 126.581 338.575 135.871 332.392 145.238C320.059 163.996 308.447 183.248 297.25 202.708L297.051 203.054L296.671 203.108L223.255 213.6L186.563 218.952L149.885 224.399L149.987 224.368C147.545 225.608 145.239 227.101 143.108 228.822C140.959 230.523 139.016 232.467 137.317 234.617C135.614 236.753 134.257 239.143 133.294 241.7C132.346 244.254 131.865 246.958 131.871 249.683L131.869 249.976L131.59 250.094C127.623 251.796 123.827 253.871 120.253 256.293C116.659 258.683 113.314 261.429 110.268 264.488C108.748 266.012 107.327 267.631 106.015 269.337C104.692 271.029 103.497 272.817 102.438 274.686C100.302 278.407 98.7709 282.444 97.9033 286.647L97.2613 285.859L106.461 285.823L105.914 286.091C108.941 282.249 112.159 278.561 115.555 275.041C118.934 271.48 122.592 268.196 126.495 265.221C128.477 263.724 130.589 262.409 132.806 261.29C135.08 260.101 137.589 259.433 140.153 259.336C142.503 259.283 144.914 258.989 147.312 258.693L154.526 257.716C164.173 256.222 173.9 255.3 183.656 254.953C188.564 254.821 193.476 255.031 198.356 255.582C203.288 256.108 208.13 257.273 212.761 259.049C215.092 259.977 217.317 261.152 219.399 262.554C219.66 262.73 219.93 262.892 220.183 263.08L220.927 263.667C221.412 264.067 221.939 264.429 222.39 264.864C223.281 265.741 224.205 266.596 225.066 267.496C228.33 271.184 231.316 275.109 234.001 279.238C239.374 287.426 244.151 295.947 248.696 304.573C253.218 313.213 257.475 321.98 261.606 330.803C263.678 335.211 265.687 339.648 267.688 344.088C269.607 348.411 272.375 352.303 275.828 355.533C276.663 356.366 277.604 357.077 278.515 357.824C278.982 358.182 279.476 358.504 279.955 358.847L280.678 359.354L281.436 359.808C283.442 361.046 285.57 362.074 287.786 362.877C290.006 363.671 292.295 364.254 294.623 364.618C296.982 364.916 299.36 365.042 301.737 364.994L330.901 365.068L389.23 365.258L447.56 365.558L505.889 365.989V366.209L447.56 366.64L389.23 366.94L330.901 367.131L301.737 367.204C299.252 367.255 296.768 367.125 294.302 366.815C291.825 366.433 289.389 365.817 287.028 364.975C284.669 364.124 282.404 363.033 280.268 361.72L279.461 361.237L278.69 360.7C278.18 360.337 277.654 359.993 277.157 359.613C276.185 358.821 275.185 358.063 274.293 357.179C270.616 353.749 267.666 349.613 265.618 345.019C263.615 340.593 261.605 336.169 259.532 331.776C255.401 322.983 251.144 314.249 246.631 305.656C242.122 297.066 237.415 288.57 232.137 280.473C229.532 276.434 226.634 272.593 223.465 268.98C222.649 268.123 221.787 267.323 220.952 266.489C220.53 266.077 220.047 265.749 219.598 265.374L218.913 264.828C218.68 264.653 218.427 264.501 218.185 264.337C216.235 263.014 214.149 261.904 211.963 261.025C207.509 259.302 202.851 258.166 198.105 257.644C193.323 257.088 188.508 256.865 183.695 256.977C174.013 257.295 164.358 258.153 154.772 259.546L147.529 260.469C145.086 260.792 142.628 260.991 140.165 261.067C137.852 261.145 135.586 261.736 133.531 262.799C131.397 263.856 129.362 265.103 127.451 266.524C123.594 269.417 119.975 272.616 116.629 276.088C113.243 279.542 110.032 283.164 107.008 286.94L106.792 287.209L106.461 287.208L97.2613 287.172L96.4483 287.168L96.619 286.383C97.5471 282.055 99.1582 277.903 101.392 274.082C102.493 272.175 103.734 270.351 105.105 268.627C106.46 266.896 107.925 265.254 109.49 263.711C112.611 260.629 116.033 257.867 119.705 255.468C123.355 253.039 127.229 250.965 131.273 249.273L130.992 249.683C131.012 246.857 131.532 244.058 132.528 241.414C133.528 238.782 134.934 236.324 136.694 234.128C138.438 231.936 140.429 229.954 142.63 228.223C144.813 226.471 147.174 224.953 149.675 223.696L149.72 223.674L149.777 223.666L186.46 218.255L223.13 212.751L296.437 201.529L295.858 201.929C301.338 192.095 306.991 182.369 312.817 172.751C318.639 163.126 324.619 153.596 330.757 144.163C336.917 134.745 343.331 125.487 350.098 116.478C353.488 111.979 356.984 107.554 360.655 103.264C364.301 98.928 368.254 94.8596 372.484 91.0904C374.637 89.183 376.994 87.5176 379.51 86.1241C380.817 85.4069 382.223 84.8875 383.681 84.5828C385.119 84.4117 386.565 84.3206 388.013 84.3099L404.849 83.7315L438.524 82.6117L455.362 82.0518L472.202 81.5471L505.884 80.5403L505.893 80.76Z" fill="#020202"/>
<path d="M338.446 155.1C339.138 155.148 339.818 155.242 340.497 155.338C341.175 155.44 341.845 155.568 342.514 155.703C343.181 155.843 343.846 155.99 344.506 156.16C345.167 156.32 345.825 156.496 346.47 156.716L345.802 156.951C347.41 154.891 349.164 152.937 350.719 150.838C352.295 148.754 353.708 146.552 355.118 144.348C356.515 142.134 358.023 140.001 359.509 137.852C360.975 135.689 362.54 133.597 364.125 131.519L364.255 132.501C363.071 131.472 361.888 130.442 360.741 129.366C359.586 128.301 358.441 127.223 357.342 126.089L357.434 125.975C358.774 126.81 360.068 127.702 361.353 128.607C362.645 129.502 363.902 130.441 365.157 131.382L365.689 131.781L365.287 132.364C363.805 134.516 362.304 136.654 360.703 138.72C359.123 140.8 357.565 142.897 355.895 144.912C354.239 146.937 352.584 148.964 351.094 151.11C349.582 153.241 348.27 155.516 346.811 157.685L346.591 158.013L346.143 157.92C345.475 157.782 344.819 157.601 344.168 157.403C343.513 157.214 342.865 157.004 342.219 156.786C341.575 156.563 340.932 156.333 340.296 156.077C339.662 155.815 339.028 155.551 338.407 155.241L338.446 155.1Z" fill="#020202"/>
<path d="M438.747 144.002C437.948 143.208 437.187 142.384 436.428 141.559C435.673 140.73 434.94 139.885 434.212 139.034C433.489 138.181 432.771 137.323 432.071 136.451C431.364 135.585 430.67 134.708 430.011 133.804L429.744 133.437L429.966 133.095C431.39 130.903 432.969 128.805 434.337 126.579C435.726 124.367 436.944 122.05 438.158 119.732C439.37 117.413 440.67 115.147 441.971 112.881C443.245 110.599 444.624 108.379 446.022 106.172L446.4 105.577L446.976 105.908C448.515 106.795 450.053 107.682 451.565 108.62C453.082 109.548 454.591 110.489 456.067 111.494L455.998 111.623C454.342 110.957 452.72 110.226 451.106 109.481C449.486 108.747 447.892 107.963 446.3 107.177L447.254 106.913C445.963 109.185 444.652 111.445 443.236 113.642C441.847 115.855 440.458 118.067 438.981 120.227C437.506 122.388 436.033 124.551 434.733 126.818C433.412 129.071 432.301 131.451 431.035 133.738L430.99 133.031C431.716 133.883 432.405 134.763 433.082 135.653C433.766 136.538 434.432 137.436 435.092 138.34C435.749 139.246 436.4 140.157 437.029 141.085C437.654 142.016 438.276 142.949 438.862 143.912L438.747 144.002Z" fill="#020202"/>
<path d="M340.855 164.836C339.606 164.957 338.358 165.026 337.109 165.11C335.861 165.201 334.612 165.254 333.364 165.312V164.359C336.08 164.241 338.797 164.177 341.514 164.133C344.231 164.107 346.947 164.096 349.664 164.128C355.098 164.196 360.531 164.357 365.965 164.836C360.531 165.315 355.098 165.475 349.664 165.543C346.947 165.576 344.231 165.564 341.514 165.538C338.797 165.494 336.08 165.43 333.364 165.312V164.359C334.612 164.418 335.861 164.47 337.109 164.561C338.358 164.645 339.606 164.714 340.855 164.836Z" fill="#020202"/>
<path d="M420.308 164.762C422.583 164.683 424.857 164.631 427.132 164.577L426.906 164.71C428.414 161.803 429.963 158.919 431.505 156.031C433.053 153.146 434.576 150.248 436.157 147.382C439.309 141.644 442.397 135.871 445.603 130.163C448.798 124.449 452.096 118.792 455.356 113.114C456.995 110.28 458.626 107.442 460.22 104.583C461.82 101.727 463.448 98.8873 465.006 96.0081L465.069 95.8908L465.206 95.8871L474.586 95.6351L483.964 95.313L484.717 95.2871L484.332 95.951C480.954 101.769 477.546 107.57 474.109 113.353L463.776 130.687C460.314 136.455 456.824 142.206 453.304 147.939L442.68 165.098L442.505 164.399C443.993 165.358 445.409 166.424 446.743 167.588C448.083 168.741 449.318 170.011 450.432 171.383C451.554 172.762 452.444 174.313 453.069 175.976C453.702 177.645 453.824 179.465 453.42 181.203L453.277 181.172C453.568 179.467 453.36 177.714 452.679 176.125C452 174.545 451.07 173.085 449.924 171.803C448.793 170.504 447.548 169.308 446.205 168.229C444.872 167.143 443.463 166.155 441.989 165.272L441.554 165.014L441.813 164.573L452.052 147.181C455.495 141.402 458.959 135.635 462.443 129.882L472.973 112.665C476.499 106.936 480.045 101.22 483.613 95.5161L483.981 96.154L474.598 96.2204L465.216 96.3568L465.416 96.236C463.801 99.0829 462.256 101.969 460.682 104.839C459.104 107.707 457.562 110.595 456.027 113.487C452.94 119.261 449.892 125.057 446.74 130.794C443.601 136.539 440.342 142.218 437.147 147.932C435.555 150.792 433.905 153.62 432.279 156.461C430.649 159.3 429.025 162.142 427.359 164.961L427.278 165.098L427.132 165.094C424.857 165.04 422.583 164.988 420.308 164.909V164.762Z" fill="#020202"/>
<path d="M398.588 164.836C397.424 165.12 396.238 165.311 395.044 165.405C393.862 165.522 392.681 165.553 391.499 165.568C390.318 165.555 389.137 165.524 387.955 165.407C386.76 165.313 385.575 165.122 384.411 164.836C385.575 164.549 386.76 164.357 387.955 164.264C389.137 164.147 390.318 164.116 391.499 164.103C392.681 164.118 393.862 164.149 395.044 164.266C396.238 164.36 397.424 164.551 398.588 164.836Z" fill="#020202"/>
<path d="M131.432 249.61C141.037 249.459 150.641 249.488 160.243 249.578L174.646 249.798C179.447 249.87 184.246 250.053 189.045 250.192L203.438 250.822L217.828 251.509C227.419 252.011 237.015 252.317 246.604 253.172C247.803 253.292 249.001 253.412 250.201 253.588C250.801 253.676 251.401 253.771 252.004 253.897C252.653 254.003 253.282 254.204 253.871 254.495C254.408 254.822 254.885 255.122 255.405 255.458C255.92 255.783 256.43 256.119 256.919 256.498C257.419 256.857 257.896 257.248 258.346 257.668L259.038 258.279L259.675 258.939C262.94 262.524 265.85 266.417 268.363 270.565C273.507 278.723 278.141 287.163 282.597 295.686L285.899 302.098C286.995 304.237 288.109 306.368 289.151 308.534C291.255 312.856 293.415 317.151 295.473 321.494C297.544 325.831 299.604 330.173 301.623 334.534L307.607 347.651L307.474 347.715C298.764 330.58 290.177 313.392 281.26 296.389C279 292.156 276.734 287.926 274.407 283.734C273.271 281.621 272.078 279.542 270.877 277.469C269.704 275.378 268.448 273.341 267.198 271.301C264.768 267.204 261.971 263.337 258.841 259.748L258.239 259.101L257.592 258.509C257.171 258.101 256.725 257.722 256.256 257.372C255.356 256.641 254.324 256.004 253.34 255.343C252.851 255.102 252.332 254.928 251.798 254.825C251.229 254.689 250.645 254.581 250.061 254.479C248.89 254.274 247.703 254.121 246.517 253.969C227.449 251.869 208.197 251.709 189.013 251.406C169.818 251.002 150.625 250.494 131.431 249.757L131.432 249.61Z" fill="#020202"/>
<path d="M333.425 154.694C331.264 158.448 329.151 162.228 327.027 165.999C324.924 169.782 322.851 173.579 320.807 177.39C316.775 185.038 312.842 192.747 309.558 200.718C305.837 208.627 306.12 217.516 305.766 226.126C305.547 234.784 305.649 243.449 305.829 252.106C306.21 269.415 306.754 286.746 308.44 303.941C308.67 306.087 308.931 308.228 309.247 310.357C309.558 312.487 309.907 314.61 310.392 316.687C310.624 317.719 310.915 318.736 311.265 319.734C311.439 320.216 311.641 320.687 311.871 321.145C312.095 321.558 312.399 322.002 312.708 322.452C313.924 324.232 315.172 325.988 316.505 327.672C319.051 331.123 322.197 334.089 325.793 336.426C327.617 337.55 329.575 338.442 331.62 339.079C333.684 339.702 335.809 340.102 337.957 340.275L337.949 340.421C333.563 340.331 329.266 339.17 325.431 337.038C321.673 334.763 318.356 331.825 315.642 328.368C314.254 326.681 312.958 324.929 311.698 323.157C311.361 322.703 311.048 322.232 310.76 321.746C310.493 321.241 310.258 320.721 310.053 320.188C309.666 319.148 309.34 318.088 309.075 317.01C308.081 312.76 307.372 308.448 306.954 304.103C306.006 295.46 305.496 286.793 305.205 278.124C304.894 269.456 304.76 260.786 304.806 252.114C304.859 243.444 305.048 234.778 305.289 226.113C305.454 221.782 305.547 217.449 305.854 213.117C305.969 210.935 306.271 208.767 306.756 206.636C307.277 204.517 307.913 202.429 308.661 200.379C309.382 198.323 310.203 196.308 311.037 194.299C311.906 192.307 312.811 190.332 313.753 188.373C315.599 184.44 317.696 180.636 319.772 176.828C321.852 173.02 324.054 169.283 326.307 165.579C328.548 161.868 330.88 158.213 333.301 154.616L333.425 154.694Z" fill="#020202"/>
<path d="M178.603 262.911C165.605 262.909 152.899 266.766 142.091 273.992C131.284 281.219 122.86 291.491 117.885 303.509C112.91 315.528 111.607 328.753 114.142 341.513C116.677 354.272 122.935 365.993 132.125 375.192C141.315 384.392 153.025 390.657 165.772 393.195C178.52 395.734 191.734 394.432 203.742 389.454C215.75 384.476 226.014 376.045 233.235 365.228C240.456 354.412 244.311 341.695 244.311 328.685C244.31 311.242 237.387 294.514 225.065 282.179C212.743 269.844 196.03 262.913 178.603 262.911ZM178.603 363.214C171.78 363.214 165.11 361.189 159.437 357.395C153.764 353.601 149.342 348.208 146.731 341.899C144.12 335.59 143.437 328.647 144.768 321.949C146.099 315.251 149.384 309.099 154.209 304.27C159.034 299.441 165.18 296.152 171.872 294.82C178.564 293.487 185.501 294.171 191.804 296.785C198.108 299.398 203.496 303.824 207.287 309.502C211.077 315.18 213.101 321.856 213.101 328.685C213.099 337.843 209.464 346.624 202.995 353.1C196.526 359.575 187.752 363.213 178.603 363.214Z" fill="#020202"/>
<path d="M178.599 339.866C184.769 339.866 189.77 334.86 189.77 328.685C189.77 322.51 184.769 317.504 178.599 317.504C172.43 317.504 167.428 322.51 167.428 328.685C167.428 334.86 172.43 339.866 178.599 339.866Z" fill="#020202"/>
<path d="M434.03 121.928C432.357 124.074 430.582 126.119 428.77 128.128C426.964 130.144 425.098 132.1 423.219 134.044C421.321 135.969 419.41 137.881 417.437 139.734C415.472 141.593 413.469 143.415 411.362 145.136C413.033 142.989 414.808 140.943 416.62 138.934C418.426 136.919 420.293 134.963 422.172 133.02C424.072 131.096 425.983 129.184 427.956 127.332C429.922 125.473 431.924 123.65 434.03 121.928Z" fill="black"/>
<path d="M416.424 122.003C414.752 124.149 412.976 126.194 411.165 128.203C409.359 130.219 407.492 132.174 405.614 134.119C403.716 136.044 401.804 137.956 399.832 139.808C397.866 141.667 395.863 143.49 393.756 145.21C395.427 143.063 397.203 141.018 399.015 139.009C400.821 136.993 402.687 135.037 404.567 133.094C406.467 131.171 408.378 129.259 410.35 127.406C412.316 125.548 414.319 123.725 416.424 122.003Z" fill="black"/>
</svg>
