<svg width="27" height="26" viewBox="0 0 27 26" fill="none" xmlns="http://www.w3.org/2000/svg">
<path d="M18.8435 0H7.94406C3.2097 0 0.387299 2.821 0.387299 7.553V18.434C0.387299 23.179 3.2097 26 7.94406 26H18.8305C23.5648 26 26.3873 23.179 26.3873 18.447V7.553C26.4003 2.821 23.5779 0 18.8435 0ZM13.3938 18.044C10.6104 18.044 8.34726 15.782 8.34726 13C8.34726 10.218 10.6104 7.956 13.3938 7.956C16.1772 7.956 18.4403 10.218 18.4403 13C18.4403 15.782 16.1772 18.044 13.3938 18.044ZM21.0936 6.344C21.0286 6.5 20.9375 6.643 20.8205 6.773C20.6904 6.89 20.5473 6.981 20.3913 7.046C20.2352 7.111 20.0661 7.15 19.897 7.15C19.5458 7.15 19.2207 7.02 18.9736 6.773C18.8565 6.643 18.7655 6.5 18.7004 6.344C18.6354 6.188 18.5964 6.019 18.5964 5.85C18.5964 5.681 18.6354 5.512 18.7004 5.356C18.7655 5.187 18.8565 5.057 18.9736 4.927C19.2727 4.628 19.7279 4.485 20.1441 4.576C20.2352 4.589 20.3132 4.615 20.3913 4.654C20.4693 4.68 20.5473 4.719 20.6254 4.771C20.6904 4.81 20.7554 4.875 20.8205 4.927C20.9375 5.057 21.0286 5.187 21.0936 5.356C21.1586 5.512 21.1977 5.681 21.1977 5.85C21.1977 6.019 21.1586 6.188 21.0936 6.344Z" fill="#201A23"/>
</svg>
